<svg xmlns="http://www.w3.org/2000/svg" xmlns:xlink="http://www.w3.org/1999/xlink" width="760" zoomAndPan="magnify" viewBox="380 765 760 80" height="80" preserveAspectRatio="xMidYMid meet" version="1.0"><defs><g/></defs><g fill="#327427" fill-opacity="1"><g transform="translate(358.434757, 831.840076)"><g/></g></g><g fill="#327427" fill-opacity="1"><g transform="translate(390.696473, 831.840076)"><g><path d="M 5.4375 0.265625 C 4.90625 0.265625 4.503906 0.0703125 4.234375 -0.3125 C 3.960938 -0.695312 3.828125 -1.15625 3.828125 -1.6875 C 3.890625 -2.582031 4.066406 -3.117188 4.359375 -3.296875 C 4.660156 -3.472656 5.226562 -3.5625 6.0625 -3.5625 C 7.78125 -3.5625 9.054688 -3.875 9.890625 -4.5 C 10.722656 -5.125 11.242188 -5.894531 11.453125 -6.8125 C 11.660156 -7.738281 11.789062 -8.941406 11.84375 -10.421875 L 11.84375 -45.703125 C 11.789062 -47.242188 11.660156 -48.457031 11.453125 -49.34375 C 11.242188 -50.238281 10.722656 -51.015625 9.890625 -51.671875 C 9.054688 -52.328125 7.78125 -52.65625 6.0625 -52.65625 L 5.53125 -52.65625 C 4.9375 -52.65625 4.519531 -52.757812 4.28125 -52.96875 C 4.039062 -53.175781 3.890625 -53.695312 3.828125 -54.53125 C 3.828125 -55.0625 3.960938 -55.519531 4.234375 -55.90625 C 4.503906 -56.289062 4.90625 -56.484375 5.4375 -56.484375 C 9.289062 -56.304688 12.820312 -56.21875 16.03125 -56.21875 L 31.359375 -56.21875 C 35.929688 -56.15625 39.742188 -55.425781 42.796875 -54.03125 C 45.859375 -52.632812 48.101562 -50.851562 49.53125 -48.6875 C 50.957031 -46.519531 51.671875 -44.191406 51.671875 -41.703125 C 51.671875 -38.429688 50.378906 -35.425781 47.796875 -32.6875 C 45.210938 -29.957031 41.691406 -28 37.234375 -26.8125 L 38.75 -24.40625 C 41.25 -20.375 43.507812 -16.914062 45.53125 -14.03125 C 47.550781 -11.15625 49.75 -8.46875 52.125 -5.96875 C 53.78125 -4.601562 55.5625 -3.800781 57.46875 -3.5625 C 57.582031 -3.5625 57.847656 -3.546875 58.265625 -3.515625 C 58.679688 -3.484375 59.019531 -3.316406 59.28125 -3.015625 C 59.550781 -2.722656 59.6875 -2.28125 59.6875 -1.6875 C 59.6875 -1.15625 59.550781 -0.695312 59.28125 -0.3125 C 59.019531 0.0703125 58.625 0.265625 58.09375 0.265625 L 55.765625 0.171875 C 53.160156 0.0546875 51.265625 0 50.078125 0 C 47.691406 -0.476562 45.648438 -1.320312 43.953125 -2.53125 C 42.265625 -3.75 40.59375 -5.488281 38.9375 -7.75 C 37.207031 -10.007812 34.800781 -13.691406 31.71875 -18.796875 L 30.109375 -21.375 C 29.222656 -22.75 28.363281 -23.6875 27.53125 -24.1875 C 26.695312 -24.695312 25.269531 -24.953125 23.25 -24.953125 L 20.671875 -24.953125 L 20.671875 -10.421875 C 20.734375 -8.941406 20.863281 -7.738281 21.0625 -6.8125 C 21.269531 -5.894531 21.789062 -5.125 22.625 -4.5 C 23.457031 -3.875 24.734375 -3.5625 26.453125 -3.5625 L 27 -3.5625 C 27.53125 -3.5625 27.925781 -3.457031 28.1875 -3.25 C 28.457031 -3.039062 28.625 -2.519531 28.6875 -1.6875 C 28.6875 -1.15625 28.550781 -0.695312 28.28125 -0.3125 C 28.019531 0.0703125 27.617188 0.265625 27.078125 0.265625 C 23.273438 0.0859375 19.566406 0 15.953125 0 C 12.796875 0 9.289062 0.0859375 5.4375 0.265625 Z M 28.515625 -28.421875 C 37.359375 -28.421875 41.78125 -32.578125 41.78125 -40.890625 C 41.78125 -44.273438 40.617188 -47.125 38.296875 -49.4375 C 35.984375 -51.757812 32.1875 -52.921875 26.90625 -52.921875 C 25.1875 -52.921875 23.878906 -52.710938 22.984375 -52.296875 C 22.097656 -51.878906 21.488281 -51.164062 21.15625 -50.15625 C 20.832031 -49.144531 20.671875 -47.601562 20.671875 -45.53125 L 20.671875 -28.421875 Z M 28.515625 -28.421875 "/></g></g></g><g fill="#327427" fill-opacity="1"><g transform="translate(462.857749, 831.840076)"><g><path d="M 32.609375 1.78125 C 26.960938 1.78125 21.984375 0.429688 17.671875 -2.265625 C 13.367188 -4.972656 10.046875 -8.550781 7.703125 -13 C 5.359375 -17.457031 4.1875 -22.242188 4.1875 -27.359375 C 4.1875 -33.585938 5.597656 -39.019531 8.421875 -43.65625 C 11.242188 -48.289062 14.851562 -51.835938 19.25 -54.296875 C 23.644531 -56.765625 28.097656 -58 32.609375 -58 C 38.304688 -58 43.335938 -56.644531 47.703125 -53.9375 C 52.078125 -51.238281 55.4375 -47.675781 57.78125 -43.25 C 60.125 -38.832031 61.296875 -34.066406 61.296875 -28.953125 C 61.296875 -22.710938 59.867188 -17.257812 57.015625 -12.59375 C 54.171875 -7.9375 50.519531 -4.375 46.0625 -1.90625 C 41.601562 0.550781 37.117188 1.78125 32.609375 1.78125 Z M 32.515625 -2.140625 C 36.554688 -2.140625 39.925781 -3.34375 42.625 -5.75 C 45.332031 -8.15625 47.351562 -11.390625 48.6875 -15.453125 C 50.019531 -19.523438 50.6875 -24.023438 50.6875 -28.953125 C 50.6875 -33.523438 50.003906 -37.726562 48.640625 -41.5625 C 47.273438 -45.394531 45.226562 -48.453125 42.5 -50.734375 C 39.769531 -53.023438 36.441406 -54.171875 32.515625 -54.171875 C 26.578125 -54.171875 22.109375 -51.660156 19.109375 -46.640625 C 16.109375 -41.617188 14.609375 -35.28125 14.609375 -27.625 C 14.609375 -22.988281 15.273438 -18.738281 16.609375 -14.875 C 17.953125 -11.019531 19.957031 -7.929688 22.625 -5.609375 C 25.300781 -3.296875 28.597656 -2.140625 32.515625 -2.140625 Z M 32.515625 -2.140625 "/></g></g></g><g fill="#327427" fill-opacity="1"><g transform="translate(540.720527, 831.840076)"><g><path d="M 16.921875 0.265625 C 16.390625 0.265625 15.988281 0.0703125 15.71875 -0.3125 C 15.457031 -0.695312 15.328125 -1.15625 15.328125 -1.6875 C 15.378906 -2.582031 15.566406 -3.117188 15.890625 -3.296875 C 16.222656 -3.472656 16.773438 -3.5625 17.546875 -3.5625 C 19.273438 -3.5625 20.550781 -3.875 21.375 -4.5 C 22.207031 -5.125 22.726562 -5.894531 22.9375 -6.8125 C 23.144531 -7.738281 23.28125 -8.941406 23.34375 -10.421875 L 23.34375 -21.5625 C 23.34375 -22.507812 21.867188 -25.96875 18.921875 -31.9375 C 15.984375 -37.90625 13.597656 -42.554688 11.765625 -45.890625 C 10.578125 -48.023438 9.269531 -49.609375 7.84375 -50.640625 C 6.414062 -51.679688 4.660156 -52.410156 2.578125 -52.828125 C 2.347656 -52.890625 1.992188 -52.960938 1.515625 -53.046875 C 1.035156 -53.140625 0.722656 -53.316406 0.578125 -53.578125 C 0.429688 -53.847656 0.359375 -54.28125 0.359375 -54.875 C 0.359375 -55.59375 0.550781 -56.066406 0.9375 -56.296875 C 1.320312 -56.535156 1.929688 -56.65625 2.765625 -56.65625 C 7.515625 -56.65625 11.222656 -56.015625 13.890625 -54.734375 C 16.566406 -53.460938 18.945312 -51.015625 21.03125 -47.390625 C 22.039062 -45.429688 23.4375 -42.613281 25.21875 -38.9375 C 27.832031 -33.707031 29.550781 -30.320312 30.375 -28.78125 L 30.640625 -28.78125 L 40.53125 -48.28125 C 41.070312 -49.476562 41.34375 -50.34375 41.34375 -50.875 C 41.34375 -51.582031 40.96875 -52.054688 40.21875 -52.296875 C 39.476562 -52.535156 38.28125 -52.65625 36.625 -52.65625 L 36.078125 -52.65625 C 35.484375 -52.65625 35.066406 -52.757812 34.828125 -52.96875 C 34.597656 -53.175781 34.453125 -53.695312 34.390625 -54.53125 C 34.390625 -55.0625 34.519531 -55.519531 34.78125 -55.90625 C 35.050781 -56.289062 35.425781 -56.484375 35.90625 -56.484375 C 39.769531 -56.304688 43.003906 -56.21875 45.609375 -56.21875 C 47.804688 -56.21875 50.804688 -56.304688 54.609375 -56.484375 C 55.148438 -56.484375 55.550781 -56.289062 55.8125 -55.90625 C 56.082031 -55.519531 56.21875 -55.0625 56.21875 -54.53125 C 56.15625 -53.695312 56.003906 -53.175781 55.765625 -52.96875 C 55.535156 -52.757812 55.125 -52.65625 54.53125 -52.65625 C 52.09375 -52.65625 50.128906 -52.191406 48.640625 -51.265625 C 47.160156 -50.347656 45.828125 -48.789062 44.640625 -46.59375 L 34.5625 -27.625 C 34.382812 -27.257812 34.03125 -26.523438 33.5 -25.421875 C 32.96875 -24.328125 32.609375 -23.320312 32.421875 -22.40625 C 32.242188 -21.488281 32.15625 -20.375 32.15625 -19.0625 L 32.15625 -10.421875 C 32.21875 -8.941406 32.351562 -7.738281 32.5625 -6.8125 C 32.769531 -5.894531 33.289062 -5.125 34.125 -4.5 C 34.957031 -3.875 36.234375 -3.5625 37.953125 -3.5625 L 38.484375 -3.5625 C 39.078125 -3.5625 39.492188 -3.457031 39.734375 -3.25 C 39.972656 -3.039062 40.125 -2.519531 40.1875 -1.6875 C 40.1875 -1.15625 40.050781 -0.695312 39.78125 -0.3125 C 39.507812 0.0703125 39.140625 0.265625 38.671875 0.265625 C 34.867188 0.0859375 31.300781 0 27.96875 0 C 24.46875 0 20.785156 0.0859375 16.921875 0.265625 Z M 16.921875 0.265625 "/></g></g></g><g fill="#327427" fill-opacity="1"><g transform="translate(608.427488, 831.840076)"><g><path d="M 0.53125 0.265625 C 0 0.265625 -0.394531 0.0703125 -0.65625 -0.3125 C -0.925781 -0.695312 -1.0625 -1.15625 -1.0625 -1.6875 C -1.007812 -2.582031 -0.832031 -3.117188 -0.53125 -3.296875 C -0.238281 -3.472656 0.113281 -3.5625 0.53125 -3.5625 C 0.945312 -3.5625 1.21875 -3.5625 1.34375 -3.5625 C 3.125 -3.5625 4.425781 -4.019531 5.25 -4.9375 C 6.082031 -5.863281 6.75 -6.90625 7.25 -8.0625 C 7.757812 -9.21875 8.101562 -10.003906 8.28125 -10.421875 L 23.875 -47.3125 C 24.226562 -48.195312 24.40625 -48.910156 24.40625 -49.453125 C 24.40625 -50.515625 23.988281 -51.28125 23.15625 -51.75 C 22.332031 -52.226562 21.175781 -52.617188 19.6875 -52.921875 C 18.675781 -53.097656 18.050781 -53.273438 17.8125 -53.453125 C 17.582031 -53.628906 17.46875 -54.132812 17.46875 -54.96875 C 17.46875 -55.6875 17.660156 -56.160156 18.046875 -56.390625 C 18.429688 -56.628906 19.039062 -56.75 19.875 -56.75 C 22.84375 -56.75 25.203125 -56.523438 26.953125 -56.078125 C 28.703125 -55.640625 30.226562 -54.75 31.53125 -53.40625 C 32.84375 -52.070312 34.0625 -50.039062 35.1875 -47.3125 L 50.15625 -10.421875 C 51.050781 -8.160156 51.910156 -6.46875 52.734375 -5.34375 C 53.566406 -4.21875 54.816406 -3.625 56.484375 -3.5625 L 57.015625 -3.5625 C 57.609375 -3.5625 58.023438 -3.457031 58.265625 -3.25 C 58.503906 -3.039062 58.65625 -2.519531 58.71875 -1.6875 C 58.71875 -1.15625 58.582031 -0.695312 58.3125 -0.3125 C 58.039062 0.0703125 57.640625 0.265625 57.109375 0.265625 C 53.304688 0.0859375 50.039062 0 47.3125 0 C 43.75 0 40.066406 0.0859375 36.265625 0.265625 C 35.722656 0.265625 35.316406 0.0703125 35.046875 -0.3125 C 34.785156 -0.695312 34.65625 -1.15625 34.65625 -1.6875 C 34.71875 -2.519531 34.863281 -3.039062 35.09375 -3.25 C 35.332031 -3.457031 35.75 -3.5625 36.34375 -3.5625 C 38.363281 -3.5625 39.789062 -3.753906 40.625 -4.140625 C 41.457031 -4.523438 41.875 -5.222656 41.875 -6.234375 C 41.875 -7.003906 41.519531 -8.398438 40.8125 -10.421875 L 37.78125 -17.8125 L 15.765625 -17.8125 C 14.285156 -14.132812 13.441406 -12 13.234375 -11.40625 C 13.023438 -10.8125 12.921875 -10.484375 12.921875 -10.421875 C 12.203125 -8.160156 11.84375 -6.707031 11.84375 -6.0625 C 11.84375 -5.050781 12.285156 -4.378906 13.171875 -4.046875 C 14.066406 -3.722656 15.765625 -3.5625 18.265625 -3.5625 L 18.796875 -3.5625 C 19.390625 -3.5625 19.804688 -3.457031 20.046875 -3.25 C 20.285156 -3.039062 20.429688 -2.519531 20.484375 -1.6875 C 20.484375 -1.15625 20.347656 -0.695312 20.078125 -0.3125 C 19.816406 0.0703125 19.421875 0.265625 18.890625 0.265625 C 15.085938 0.0859375 11.847656 0 9.171875 0 C 7.273438 0 4.394531 0.0859375 0.53125 0.265625 Z M 17.46875 -21.65625 L 36.171875 -21.65625 L 27.171875 -44.546875 L 26.90625 -44.546875 Z M 17.46875 -21.65625 "/></g></g></g><g fill="#327427" fill-opacity="1"><g transform="translate(678.985229, 831.840076)"><g><path d="M 5.34375 0.265625 C 4.875 0.265625 4.503906 0.0703125 4.234375 -0.3125 C 3.960938 -0.695312 3.828125 -1.15625 3.828125 -1.6875 C 3.890625 -2.582031 4.066406 -3.117188 4.359375 -3.296875 C 4.660156 -3.472656 5.226562 -3.5625 6.0625 -3.5625 C 7.78125 -3.5625 9.054688 -3.875 9.890625 -4.5 C 10.722656 -5.125 11.242188 -5.894531 11.453125 -6.8125 C 11.660156 -7.738281 11.789062 -8.941406 11.84375 -10.421875 L 11.84375 -45.796875 C 11.789062 -47.273438 11.660156 -48.472656 11.453125 -49.390625 C 11.242188 -50.316406 10.722656 -51.09375 9.890625 -51.71875 C 9.054688 -52.34375 7.78125 -52.65625 6.0625 -52.65625 L 5.53125 -52.65625 C 4.9375 -52.65625 4.519531 -52.757812 4.28125 -52.96875 C 4.039062 -53.175781 3.890625 -53.695312 3.828125 -54.53125 C 3.828125 -55.0625 3.960938 -55.519531 4.234375 -55.90625 C 4.503906 -56.289062 4.875 -56.484375 5.34375 -56.484375 C 9.257812 -56.304688 12.796875 -56.21875 15.953125 -56.21875 C 19.515625 -56.21875 23.222656 -56.304688 27.078125 -56.484375 C 27.617188 -56.484375 28.019531 -56.289062 28.28125 -55.90625 C 28.550781 -55.519531 28.6875 -55.0625 28.6875 -54.53125 C 28.625 -53.632812 28.429688 -53.097656 28.109375 -52.921875 C 27.785156 -52.742188 27.234375 -52.65625 26.453125 -52.65625 C 24.734375 -52.65625 23.457031 -52.34375 22.625 -51.71875 C 21.789062 -51.09375 21.269531 -50.316406 21.0625 -49.390625 C 20.863281 -48.472656 20.734375 -47.273438 20.671875 -45.796875 L 20.671875 -9.09375 C 20.785156 -7.84375 20.929688 -6.875 21.109375 -6.1875 C 21.285156 -5.507812 21.820312 -4.882812 22.71875 -4.3125 C 23.613281 -3.75 25.007812 -3.5 26.90625 -3.5625 L 34.921875 -3.5625 C 37.003906 -3.625 38.578125 -3.96875 39.640625 -4.59375 C 40.710938 -5.21875 41.5625 -6.179688 42.1875 -7.484375 C 42.8125 -8.785156 43.566406 -10.925781 44.453125 -13.90625 C 44.867188 -14.96875 45.878906 -15.378906 47.484375 -15.140625 C 48.015625 -15.023438 48.519531 -14.789062 49 -14.4375 C 49.476562 -14.082031 49.6875 -13.632812 49.625 -13.09375 L 47.84375 -1.875 C 47.664062 -1.101562 47.394531 -0.597656 47.03125 -0.359375 C 46.675781 -0.117188 46.085938 0 45.265625 0 L 16.03125 0 C 12.820312 0 9.257812 0.0859375 5.34375 0.265625 Z M 5.34375 0.265625 "/></g></g></g><g fill="#327427" fill-opacity="1"><g transform="translate(742.237909, 831.840076)"><g/></g></g><g fill="#327427" fill-opacity="1"><g transform="translate(774.488661, 831.840076)"><g><path d="M 5.34375 0.265625 C 4.875 0.265625 4.503906 0.0703125 4.234375 -0.3125 C 3.960938 -0.695312 3.828125 -1.15625 3.828125 -1.6875 C 3.890625 -2.582031 4.066406 -3.117188 4.359375 -3.296875 C 4.660156 -3.472656 5.226562 -3.5625 6.0625 -3.5625 C 7.78125 -3.5625 9.054688 -3.875 9.890625 -4.5 C 10.722656 -5.125 11.242188 -5.894531 11.453125 -6.8125 C 11.660156 -7.738281 11.789062 -8.941406 11.84375 -10.421875 L 11.84375 -45.796875 C 11.789062 -47.273438 11.660156 -48.472656 11.453125 -49.390625 C 11.242188 -50.316406 10.722656 -51.09375 9.890625 -51.71875 C 9.054688 -52.34375 7.78125 -52.65625 6.0625 -52.65625 L 5.53125 -52.65625 C 4.9375 -52.65625 4.519531 -52.757812 4.28125 -52.96875 C 4.039062 -53.175781 3.890625 -53.695312 3.828125 -54.53125 C 3.828125 -55.0625 3.960938 -55.519531 4.234375 -55.90625 C 4.503906 -56.289062 4.875 -56.484375 5.34375 -56.484375 C 9.207031 -56.304688 12.742188 -56.21875 15.953125 -56.21875 L 41.703125 -56.21875 C 43.242188 -56.21875 44.015625 -55.503906 44.015625 -54.078125 L 44.28125 -41.609375 C 44.28125 -41.078125 44.007812 -40.644531 43.46875 -40.3125 C 42.9375 -39.988281 42.40625 -39.828125 41.875 -39.828125 C 41.164062 -39.828125 40.523438 -39.957031 39.953125 -40.21875 C 39.390625 -40.488281 39.078125 -40.890625 39.015625 -41.421875 C 38.609375 -44.335938 38.117188 -46.550781 37.546875 -48.0625 C 36.984375 -49.582031 36.148438 -50.710938 35.046875 -51.453125 C 33.953125 -52.191406 32.394531 -52.59375 30.375 -52.65625 L 20.671875 -52.65625 L 20.671875 -29.484375 L 36.625 -29.484375 C 37.09375 -29.429688 37.445312 -29.210938 37.6875 -28.828125 C 37.925781 -28.441406 38.046875 -27.976562 38.046875 -27.4375 C 38.046875 -26.96875 37.925781 -26.550781 37.6875 -26.1875 C 37.445312 -25.832031 37.09375 -25.65625 36.625 -25.65625 L 20.671875 -25.65625 L 20.671875 -10.421875 C 20.734375 -8.941406 20.863281 -7.738281 21.0625 -6.8125 C 21.269531 -5.894531 21.789062 -5.125 22.625 -4.5 C 23.457031 -3.875 24.734375 -3.5625 26.453125 -3.5625 L 27 -3.5625 C 27.53125 -3.5625 27.925781 -3.457031 28.1875 -3.25 C 28.457031 -3.039062 28.625 -2.519531 28.6875 -1.6875 C 28.6875 -1.15625 28.550781 -0.695312 28.28125 -0.3125 C 28.019531 0.0703125 27.617188 0.265625 27.078125 0.265625 C 23.273438 0.0859375 19.59375 0 16.03125 0 C 12.769531 0 9.207031 0.0859375 5.34375 0.265625 Z M 5.34375 0.265625 "/></g></g></g><g fill="#327427" fill-opacity="1"><g transform="translate(833.643395, 831.840076)"><g><path d="M 5.4375 0.265625 C 4.90625 0.265625 4.503906 0.0703125 4.234375 -0.3125 C 3.960938 -0.695312 3.828125 -1.15625 3.828125 -1.6875 C 3.890625 -2.582031 4.066406 -3.117188 4.359375 -3.296875 C 4.660156 -3.472656 5.226562 -3.5625 6.0625 -3.5625 C 7.78125 -3.5625 9.054688 -3.875 9.890625 -4.5 C 10.722656 -5.125 11.242188 -5.894531 11.453125 -6.8125 C 11.660156 -7.738281 11.789062 -8.941406 11.84375 -10.421875 L 11.84375 -45.703125 C 11.789062 -47.242188 11.660156 -48.457031 11.453125 -49.34375 C 11.242188 -50.238281 10.722656 -51.015625 9.890625 -51.671875 C 9.054688 -52.328125 7.78125 -52.65625 6.0625 -52.65625 L 5.53125 -52.65625 C 4.9375 -52.65625 4.519531 -52.757812 4.28125 -52.96875 C 4.039062 -53.175781 3.890625 -53.695312 3.828125 -54.53125 C 3.828125 -55.0625 3.960938 -55.519531 4.234375 -55.90625 C 4.503906 -56.289062 4.90625 -56.484375 5.4375 -56.484375 C 9.289062 -56.304688 12.820312 -56.21875 16.03125 -56.21875 L 31.359375 -56.21875 C 35.929688 -56.15625 39.742188 -55.425781 42.796875 -54.03125 C 45.859375 -52.632812 48.101562 -50.851562 49.53125 -48.6875 C 50.957031 -46.519531 51.671875 -44.191406 51.671875 -41.703125 C 51.671875 -38.429688 50.378906 -35.425781 47.796875 -32.6875 C 45.210938 -29.957031 41.691406 -28 37.234375 -26.8125 L 38.75 -24.40625 C 41.25 -20.375 43.507812 -16.914062 45.53125 -14.03125 C 47.550781 -11.15625 49.75 -8.46875 52.125 -5.96875 C 53.78125 -4.601562 55.5625 -3.800781 57.46875 -3.5625 C 57.582031 -3.5625 57.847656 -3.546875 58.265625 -3.515625 C 58.679688 -3.484375 59.019531 -3.316406 59.28125 -3.015625 C 59.550781 -2.722656 59.6875 -2.28125 59.6875 -1.6875 C 59.6875 -1.15625 59.550781 -0.695312 59.28125 -0.3125 C 59.019531 0.0703125 58.625 0.265625 58.09375 0.265625 L 55.765625 0.171875 C 53.160156 0.0546875 51.265625 0 50.078125 0 C 47.691406 -0.476562 45.648438 -1.320312 43.953125 -2.53125 C 42.265625 -3.75 40.59375 -5.488281 38.9375 -7.75 C 37.207031 -10.007812 34.800781 -13.691406 31.71875 -18.796875 L 30.109375 -21.375 C 29.222656 -22.75 28.363281 -23.6875 27.53125 -24.1875 C 26.695312 -24.695312 25.269531 -24.953125 23.25 -24.953125 L 20.671875 -24.953125 L 20.671875 -10.421875 C 20.734375 -8.941406 20.863281 -7.738281 21.0625 -6.8125 C 21.269531 -5.894531 21.789062 -5.125 22.625 -4.5 C 23.457031 -3.875 24.734375 -3.5625 26.453125 -3.5625 L 27 -3.5625 C 27.53125 -3.5625 27.925781 -3.457031 28.1875 -3.25 C 28.457031 -3.039062 28.625 -2.519531 28.6875 -1.6875 C 28.6875 -1.15625 28.550781 -0.695312 28.28125 -0.3125 C 28.019531 0.0703125 27.617188 0.265625 27.078125 0.265625 C 23.273438 0.0859375 19.566406 0 15.953125 0 C 12.796875 0 9.289062 0.0859375 5.4375 0.265625 Z M 28.515625 -28.421875 C 37.359375 -28.421875 41.78125 -32.578125 41.78125 -40.890625 C 41.78125 -44.273438 40.617188 -47.125 38.296875 -49.4375 C 35.984375 -51.757812 32.1875 -52.921875 26.90625 -52.921875 C 25.1875 -52.921875 23.878906 -52.710938 22.984375 -52.296875 C 22.097656 -51.878906 21.488281 -51.164062 21.15625 -50.15625 C 20.832031 -49.144531 20.671875 -47.601562 20.671875 -45.53125 L 20.671875 -28.421875 Z M 28.515625 -28.421875 "/></g></g></g><g fill="#327427" fill-opacity="1"><g transform="translate(905.80466, 831.840076)"><g><path d="M 31.984375 1.78125 C 27.410156 1.78125 23.503906 0.976562 20.265625 -0.625 C 17.023438 -2.226562 14.570312 -4.335938 12.90625 -6.953125 C 11.25 -9.566406 10.421875 -12.382812 10.421875 -15.40625 L 10.421875 -45.796875 C 10.359375 -47.273438 10.222656 -48.472656 10.015625 -49.390625 C 9.816406 -50.316406 9.300781 -51.09375 8.46875 -51.71875 C 7.632812 -52.34375 6.359375 -52.65625 4.640625 -52.65625 L 4.09375 -52.65625 C 3.5 -52.65625 3.082031 -52.757812 2.84375 -52.96875 C 2.613281 -53.175781 2.46875 -53.695312 2.40625 -54.53125 C 2.40625 -55.0625 2.535156 -55.519531 2.796875 -55.90625 C 3.066406 -56.289062 3.472656 -56.484375 4.015625 -56.484375 C 7.816406 -56.304688 11.316406 -56.21875 14.515625 -56.21875 C 18.140625 -56.21875 21.851562 -56.304688 25.65625 -56.484375 C 26.1875 -56.484375 26.585938 -56.289062 26.859375 -55.90625 C 27.128906 -55.519531 27.265625 -55.0625 27.265625 -54.53125 C 27.203125 -53.695312 27.035156 -53.175781 26.765625 -52.96875 C 26.503906 -52.757812 26.078125 -52.65625 25.484375 -52.65625 C 23.578125 -52.65625 22.175781 -52.359375 21.28125 -51.765625 C 20.394531 -51.171875 19.847656 -50.425781 19.640625 -49.53125 C 19.429688 -48.644531 19.300781 -47.398438 19.25 -45.796875 L 19.25 -18 C 19.25 -13.894531 20.210938 -10.445312 22.140625 -7.65625 C 24.066406 -4.863281 27.820312 -3.46875 33.40625 -3.46875 C 38.875 -3.46875 42.75 -4.726562 45.03125 -7.25 C 47.320312 -9.78125 48.46875 -12.945312 48.46875 -16.75 L 48.46875 -40.1875 C 48.46875 -44.21875 48.316406 -47.066406 48.015625 -48.734375 C 47.722656 -50.398438 47.128906 -51.46875 46.234375 -51.9375 C 45.347656 -52.414062 43.804688 -52.65625 41.609375 -52.65625 L 41.078125 -52.65625 C 40.535156 -52.65625 40.128906 -52.757812 39.859375 -52.96875 C 39.597656 -53.175781 39.4375 -53.695312 39.375 -54.53125 C 39.375 -55.0625 39.507812 -55.519531 39.78125 -55.90625 C 40.050781 -56.289062 40.453125 -56.484375 40.984375 -56.484375 C 44.847656 -56.304688 48.175781 -56.21875 50.96875 -56.21875 C 53.8125 -56.21875 57.132812 -56.304688 60.9375 -56.484375 C 61.46875 -56.484375 61.867188 -56.289062 62.140625 -55.90625 C 62.410156 -55.519531 62.546875 -55.0625 62.546875 -54.53125 C 62.484375 -53.695312 62.316406 -53.175781 62.046875 -52.96875 C 61.785156 -52.757812 61.359375 -52.65625 60.765625 -52.65625 C 58.390625 -52.65625 56.738281 -52.445312 55.8125 -52.03125 C 54.894531 -51.613281 54.269531 -50.617188 53.9375 -49.046875 C 53.613281 -47.472656 53.453125 -44.695312 53.453125 -40.71875 L 53.453125 -15.859375 C 53.453125 -11.878906 52.351562 -8.566406 50.15625 -5.921875 C 47.957031 -3.273438 45.207031 -1.328125 41.90625 -0.078125 C 38.613281 1.160156 35.304688 1.78125 31.984375 1.78125 Z M 31.984375 1.78125 "/></g></g></g><g fill="#327427" fill-opacity="1"><g transform="translate(982.331157, 831.840076)"><g><path d="M 5.34375 0.265625 C 4.8125 0.265625 4.410156 0.0703125 4.140625 -0.3125 C 3.867188 -0.695312 3.734375 -1.15625 3.734375 -1.6875 C 3.796875 -2.582031 3.988281 -3.117188 4.3125 -3.296875 C 4.644531 -3.472656 5.195312 -3.5625 5.96875 -3.5625 C 7.6875 -3.5625 8.960938 -3.875 9.796875 -4.5 C 10.628906 -5.125 11.164062 -5.878906 11.40625 -6.765625 C 11.644531 -7.660156 11.789062 -8.878906 11.84375 -10.421875 L 11.84375 -45.796875 C 11.789062 -47.335938 11.644531 -48.550781 11.40625 -49.4375 C 11.164062 -50.332031 10.628906 -51.09375 9.796875 -51.71875 C 8.960938 -52.34375 7.6875 -52.65625 5.96875 -52.65625 L 5.4375 -52.65625 C 4.90625 -52.65625 4.503906 -52.757812 4.234375 -52.96875 C 3.960938 -53.175781 3.796875 -53.695312 3.734375 -54.53125 C 3.734375 -55.0625 3.867188 -55.519531 4.140625 -55.90625 C 4.410156 -56.289062 4.8125 -56.484375 5.34375 -56.484375 C 9.207031 -56.304688 12.742188 -56.21875 15.953125 -56.21875 C 19.515625 -56.21875 23.222656 -56.304688 27.078125 -56.484375 C 27.617188 -56.484375 28.019531 -56.289062 28.28125 -55.90625 C 28.550781 -55.519531 28.6875 -55.0625 28.6875 -54.53125 C 28.625 -53.632812 28.429688 -53.097656 28.109375 -52.921875 C 27.785156 -52.742188 27.207031 -52.65625 26.375 -52.65625 C 24.644531 -52.65625 23.363281 -52.34375 22.53125 -51.71875 C 21.707031 -51.09375 21.191406 -50.316406 20.984375 -49.390625 C 20.773438 -48.472656 20.640625 -47.273438 20.578125 -45.796875 L 20.578125 -10.421875 C 20.640625 -8.941406 20.773438 -7.738281 20.984375 -6.8125 C 21.191406 -5.894531 21.707031 -5.125 22.53125 -4.5 C 23.363281 -3.875 24.644531 -3.5625 26.375 -3.5625 L 26.90625 -3.5625 C 27.5 -3.5625 27.925781 -3.457031 28.1875 -3.25 C 28.457031 -3.039062 28.625 -2.519531 28.6875 -1.6875 C 28.6875 -1.15625 28.550781 -0.695312 28.28125 -0.3125 C 28.019531 0.0703125 27.617188 0.265625 27.078125 0.265625 C 23.273438 0.0859375 19.59375 0 16.03125 0 C 12.769531 0 9.207031 0.0859375 5.34375 0.265625 Z M 5.34375 0.265625 "/></g></g></g><g fill="#327427" fill-opacity="1"><g transform="translate(1027.143013, 831.840076)"><g><path d="M 15.953125 0.265625 C 15.410156 0.265625 15.003906 0.0703125 14.734375 -0.3125 C 14.472656 -0.695312 14.34375 -1.15625 14.34375 -1.6875 C 14.40625 -2.582031 14.582031 -3.117188 14.875 -3.296875 C 15.175781 -3.472656 15.742188 -3.5625 16.578125 -3.5625 C 18.296875 -3.5625 19.570312 -3.875 20.40625 -4.5 C 21.238281 -5.125 21.753906 -5.894531 21.953125 -6.8125 C 22.160156 -7.738281 22.296875 -8.941406 22.359375 -10.421875 L 22.359375 -52.921875 L 16.21875 -52.921875 C 14.195312 -52.859375 12.632812 -52.425781 11.53125 -51.625 C 10.4375 -50.820312 9.609375 -49.632812 9.046875 -48.0625 C 8.484375 -46.488281 7.992188 -44.25 7.578125 -41.34375 C 7.515625 -40.863281 7.15625 -40.472656 6.5 -40.171875 C 5.851562 -39.878906 5.171875 -39.734375 4.453125 -39.734375 C 3.921875 -39.734375 3.429688 -39.894531 2.984375 -40.21875 C 2.535156 -40.550781 2.3125 -40.984375 2.3125 -41.515625 L 2.578125 -54.078125 C 2.578125 -55.503906 3.378906 -56.21875 4.984375 -56.21875 L 48.5625 -56.21875 C 50.101562 -56.21875 50.875 -55.503906 50.875 -54.078125 L 51.234375 -41.515625 C 51.234375 -40.984375 50.992188 -40.550781 50.515625 -40.21875 C 50.035156 -39.894531 49.53125 -39.734375 49 -39.734375 C 48.289062 -39.734375 47.625 -39.878906 47 -40.171875 C 46.375 -40.472656 46.03125 -40.863281 45.96875 -41.34375 C 45.5 -44.3125 44.992188 -46.566406 44.453125 -48.109375 C 43.921875 -49.648438 43.085938 -50.820312 41.953125 -51.625 C 40.828125 -52.425781 39.253906 -52.859375 37.234375 -52.921875 L 31.1875 -52.921875 L 31.1875 -10.421875 C 31.238281 -8.941406 31.367188 -7.738281 31.578125 -6.8125 C 31.785156 -5.894531 32.304688 -5.125 33.140625 -4.5 C 33.972656 -3.875 35.25 -3.5625 36.96875 -3.5625 L 37.515625 -3.5625 C 38.046875 -3.5625 38.441406 -3.457031 38.703125 -3.25 C 38.972656 -3.039062 39.140625 -2.519531 39.203125 -1.6875 C 39.203125 -1.15625 39.066406 -0.695312 38.796875 -0.3125 C 38.535156 0.0703125 38.132812 0.265625 37.59375 0.265625 C 33.789062 0.0859375 30.285156 0 27.078125 0 C 23.515625 0 19.804688 0.0859375 15.953125 0.265625 Z M 15.953125 0.265625 "/></g></g></g><g fill="#327427" fill-opacity="1"><g transform="translate(1092.979219, 831.840076)"><g><path d="M 23.609375 1.78125 C 17.367188 1.78125 12.597656 0.695312 9.296875 -1.46875 C 6.003906 -3.632812 4.359375 -6.828125 4.359375 -11.046875 C 4.359375 -13.179688 5.085938 -14.945312 6.546875 -16.34375 C 8.003906 -17.738281 9.890625 -18.4375 12.203125 -18.4375 C 13.566406 -18.382812 14.601562 -18.046875 15.3125 -17.421875 C 16.03125 -16.796875 16.390625 -16.21875 16.390625 -15.6875 C 16.390625 -15.625 16.09375 -15.410156 15.5 -15.046875 C 14.90625 -14.691406 14.367188 -14.160156 13.890625 -13.453125 C 13.421875 -12.742188 13.1875 -11.765625 13.1875 -10.515625 C 13.1875 -7.722656 14.03125 -5.566406 15.71875 -4.046875 C 17.414062 -2.535156 20.046875 -1.78125 23.609375 -1.78125 C 26.046875 -1.78125 28.179688 -2.253906 30.015625 -3.203125 C 31.859375 -4.160156 33.269531 -5.425781 34.25 -7 C 35.238281 -8.570312 35.734375 -10.21875 35.734375 -11.9375 C 35.734375 -14.070312 35.125 -15.910156 33.90625 -17.453125 C 32.6875 -19.003906 31.1875 -20.296875 29.40625 -21.328125 C 27.625 -22.367188 25.1875 -23.578125 22.09375 -24.953125 C 18.53125 -26.554688 15.648438 -28.007812 13.453125 -29.3125 C 11.253906 -30.613281 9.382812 -32.347656 7.84375 -34.515625 C 6.300781 -36.691406 5.53125 -39.382812 5.53125 -42.59375 C 5.53125 -47.757812 7.296875 -51.617188 10.828125 -54.171875 C 14.359375 -56.722656 19.003906 -58 24.765625 -58 C 29.285156 -58 33.222656 -57.046875 36.578125 -55.140625 C 39.929688 -53.242188 41.609375 -50.457031 41.609375 -46.78125 C 41.609375 -44.632812 40.878906 -42.863281 39.421875 -41.46875 C 37.960938 -40.070312 36.078125 -39.375 33.765625 -39.375 C 32.398438 -39.4375 31.359375 -39.78125 30.640625 -40.40625 C 29.929688 -41.03125 29.578125 -41.609375 29.578125 -42.140625 C 29.578125 -42.203125 29.976562 -42.410156 30.78125 -42.765625 C 31.582031 -43.117188 32.296875 -43.648438 32.921875 -44.359375 C 33.546875 -45.078125 33.859375 -46.0625 33.859375 -47.3125 C 33.859375 -49.507812 33.007812 -51.226562 31.3125 -52.46875 C 29.625 -53.71875 27.472656 -54.34375 24.859375 -54.34375 C 21.234375 -54.34375 18.484375 -53.492188 16.609375 -51.796875 C 14.742188 -50.109375 13.8125 -48.019531 13.8125 -45.53125 C 13.8125 -43.445312 14.375 -41.707031 15.5 -40.3125 C 16.625 -38.914062 18.4375 -37.535156 20.9375 -36.171875 C 22.957031 -35.097656 25.15625 -34.03125 27.53125 -32.96875 C 31.332031 -31.238281 34.34375 -29.660156 36.5625 -28.234375 C 38.789062 -26.816406 40.660156 -24.945312 42.171875 -22.625 C 43.691406 -20.3125 44.453125 -17.429688 44.453125 -13.984375 C 44.453125 -11.015625 43.515625 -8.328125 41.640625 -5.921875 C 39.773438 -3.515625 37.253906 -1.628906 34.078125 -0.265625 C 30.898438 1.097656 27.410156 1.78125 23.609375 1.78125 Z M 23.609375 1.78125 "/></g></g></g></svg>